# xmcd
#
# Track frame offsets:
#  150
#  24489
#  55421
#  77651
#  106560
#  129184
#  152330
#  170486
#  186581
#  211835
#  229049
#  254816
#  283315
#
# Disc length: 3785 seconds
#
# Revision: 0
# Processed by: cddbd v1.5.1PL2 Copyright (c) Steve Scherf et al.
# Submitted via: Collectorz.com_Music_Collector 6.10
#
DISCID=ad0ec70d
DTITLE=Oak Tree Worship - Eternal
DYEAR=2005
DGENRE=Christian - Rock - Worship
TTITLE0=We Believe
TTITLE1=Clouds Of Glory
TTITLE2=Breathe On Me
TTITLE3=Unfailing Love
TTITLE4=Your Glory Fills The Skies
TTITLE5=Only You
TTITLE6=Words Can't Express
TTITLE7=Give Thanks
TTITLE8=The Secret Place
TTITLE9=Eternal Praise
TTITLE10=More Constant Than The Stars
TTITLE11=The Way Of The Cross
TTITLE12=Data track
EXTD=
EXTT0=
EXTT1=
EXTT2=
EXTT3=
EXTT4=
EXTT5=
EXTT6=
EXTT7=
EXTT8=
EXTT9=
EXTT10=
EXTT11=
EXTT12=
PLAYORDER=
